<?xml version="1.0" encoding="UTF-8" standalone="no" ?>
<!DOCTYPE svg PUBLIC "-//W3C//DTD SVG 1.1//EN" "http://www.w3.org/Graphics/SVG/1.1/DTD/svg11.dtd">
<svg xmlns="http://www.w3.org/2000/svg" xmlns:xlink="http://www.w3.org/1999/xlink" version="1.1" width="1080" height="1080" viewBox="0 0 1080 1080" xml:space="preserve">
<desc>Created with Fabric.js 5.2.4</desc>
<defs>
</defs>
<g transform="matrix(1 0 0 1 540 540)" id="5ad565f8-5843-4f63-9617-290f2be0efd4"  >
<rect style="stroke: none; stroke-width: 1; stroke-dasharray: none; stroke-linecap: butt; stroke-dashoffset: 0; stroke-linejoin: miter; stroke-miterlimit: 4; fill: rgb(255,255,255); fill-rule: nonzero; opacity: 1; visibility: hidden;" vector-effect="non-scaling-stroke"  x="-540" y="-540" rx="0" ry="0" width="1080" height="1080" />
</g>
<g transform="matrix(1 0 0 1 540 540)" id="05a012c1-c8bf-445e-a17d-47fc6f40d0d9"  >
</g>
<g transform="matrix(6.94 0 0 6.94 733.71 564.69)" id="path22339"  >
<path style="stroke: rgb(0,0,0); stroke-width: 0; stroke-dasharray: none; stroke-linecap: butt; stroke-dashoffset: 0; stroke-linejoin: miter; stroke-miterlimit: 4; fill: rgb(0,108,182); fill-rule: nonzero; opacity: 1;" vector-effect="non-scaling-stroke"  transform=" translate(-103.58, -13.2)" d="M 0.9375 0 L 0 3.65625 L 8.6875 3.65625 L 5.5 16.40625 L 3.15625 25.8125 L 8.84375 25.8125 L 11.1875 16.40625 L 14.375 3.65625 L 23.03125 3.65625 L 23.9375 0 L 0.9375 0 z M 174.5625 0.28125 C 174.1 2.18125 173.675 3.66375 173.25 4.9375 L 171.125 4.9375 L 171.8125 4.5 C 172.9975 3.73125 173.58125 3.3362499999999997 173.59375 3.28125 C 172.96125 1.8525 172.42625 0.86625 171.9375 0.375 C 171.9237 0.2862 171.02125 0.8375 169.28125 1.96875 L 168.6875 2.34375 C 168.7 2.37125 168.7713 2.4775 168.90625 2.65625 C 169.51875 3.4525 170.03625 4.2025 170.4375 4.9375 L 168.6875 4.9375 L 168.125 7.5625 L 172.0625 7.5625 L 171.78125 8.09375 L 171.5 8.625 L 167.25 8.625 L 166.71875 11.25 L 169.65625 11.25 C 168.4025 12.78 166.91125 14.00875 165.1875 14.9375 L 167.9375 1.8125 L 160.34375 1.8125 L 157.5 15.375 C 157.4237 15.73 157.3375 16.0675 157.25 16.40625 C 156.58875 19.03 155.605 21.38375 154.28125 23.46875 C 155.08375 24.1775 155.7375 24.9375 156.28125 25.75 C 157.8725 23.48 159.1225 20.57375 160.0625 17 L 161.71875 17 L 160.78125 21.4375 C 160.70745 22.045 160.09 22.31875 158.96875 22.21875 C 159.2025 23.305 159.3025 24.3925 159.21875 25.53125 C 161.925 25.51375 163.29125 24.90375 163.34375 23.65625 L 164.875 16.40625 L 164.9687 15.90625 C 165.13745 16.075 165.29495 16.24125 165.43745 16.40625 C 165.80245000000002 16.83625 166.08620000000002 17.25875 166.2812 17.6875 C 166.6962 17.4825 167.1887 17.1675 167.74995 16.6875 L 166.74995 19.9375 L 175.8437 19.9375 L 175.68745 20.78125 C 175.32745 22.53625 174.8212 23.38875 174.18745 23.28125 L 174.68745 20.78125 L 164.93745 20.78125 L 164.37495 23.375 L 172.31245 23.375 C 172.76620000000003 24.35375 172.95995000000002 25.35625 172.87495 26.40625 C 175.40745 26.32375 176.95870000000002 25.93375 177.56245 25.21875 C 177.7512 25.01 177.94995 24.6475 178.1562 24.03125 C 178.56995 22.7925 179.05495000000002 20.98125 179.6562 18.59375 L 179.99995 17.21875 L 176.62495 17.21875 L 176.81245 16.40625 L 177.06245 15.15625 C 177.66245 15.68125 178.19495 16.09 178.6562 16.40625 C 178.99745000000001 16.64 179.29870000000003 16.81875 179.56245 16.9375 C 179.70745000000002 16.75625 179.8562 16.5775 179.99995 16.40625 C 180.86995000000002 15.35 181.6962 14.47 182.4687 13.75 C 180.43120000000002 13.17 178.9387 12.3375 177.99995 11.25 L 182.4687 11.25 L 182.99995 8.625 L 174.9687 8.625 C 175.18370000000002 8.31 175.3837 7.9712499999999995 175.5312 7.5625 L 182.1562 7.5625 L 182.68745 4.9375 L 180.31245 4.9375 C 181.34995 3.92375 182.26245 3.09 183.0937 2.4375 L 180.3125 0.71875 C 179.42125 1.85625 178.46 2.96375 177.40625 4.03125 L 179.09375 5.0625 L 176.6875 5.0625 L 177.03125 3.96875 L 177.46875 2.875 C 177.83375 1.9537499999999999 178.13375 1.25375 178.34375 0.8125 C 178.36375 0.63125 178.24505 0.54 177.875 0.5 C 177.17375 0.39 176.0725 0.3175 174.5625 0.28125 z M 191.375 0.5 C 190.5275 0.78125 189.21 1.295 187.375 2.0625 C 187.9525 3.70875 188.36875 5.35125 188.65625 7 C 189.305 6.75375 190.7125 6.27 192.84375 5.5 C 191.955 2.3 191.44625 0.6262499999999998 191.375 0.5 z M 194.46875 1.90625 L 193.8125 4.9375 L 196.3125 4.9375 L 195.125 10.59375 L 192 10.59375 L 191.34375 13.625 L 194.5 13.625 L 193.90625 16.40625 L 192 25.4375 L 195.5 25.4375 L 197.375 16.40625 L 197.96875 13.625 L 200.46875 13.625 L 199.96875 15.90625 C 199.93255 16.075 199.90625 16.24 199.87505 16.40625 C 199.23505 19.7575 199.5638 22.37875 200.8438 24.25 C 201.6238 25.35875 202.56504999999999 25.8275 203.68755 25.65625 C 204.85004999999998 25.71625 206.01379999999997 23.84 207.1563 20.03125 C 206.1163 19.55875 205.15879999999999 19.1425 204.31255 18.78125 C 203.74505 20.52625 203.39255 21.0925 203.25005 20.46875 C 203.0263 19.57875 203.07254999999998 18.225 203.37505 16.40625 C 203.47254999999998 15.81875 203.59754999999998 15.1875 203.75005 14.5 L 206.4063 1.90625 L 194.4688 1.90625 z M 142.5625 2.21875 L 141.375 7.03125 L 136.8125 7.03125 L 135.9375 10.59375 L 152.625 10.59375 L 142.5625 2.21875 z M 162.6875 4.5 L 164.34375 4.5 L 163.5625 8.21875 L 161.9375 8.21875 L 162.6875 4.5 z M 199.78125 4.9375 L 202.40625 4.9375 L 201.21875 10.59375 L 198.59375 10.59375 L 199.78125 4.9375 z M 30.46875 5.96875 C 27.00125 5.96875 23.99375 6.875 21.4375 8.6875 C 18.895 10.526250000000001 17.24375 12.934999999999999 16.5 15.90625 C 16.4563 16.08 16.41 16.23625 16.375 16.40625 C 15.80375 19.165 16.31 21.415 17.90625 23.125 C 19.6075 24.925 22.2325 25.8125 25.78125 25.8125 C 31.83 25.8125 36.46625 22.1225 36.9375 21.71875 L 34.3125 21.125 C 33.695 21.2675 30.3325 22.24125 26.96875 21.9375 C 22.725 21.55625 21.7625 18.44875 22 16.90625 L 39.03125 16.90625 L 39.1875 16.40625 L 39.3125 15.875 C 40.085 12.7775 39.67625 10.341249999999999 38.09375 8.59375 C 36.49875 6.83125 33.97125 5.96875 30.46875 5.96875 z M 80.9375 5.96875 C 77.28875 5.96875 73.98875 6.915 71 8.84375 C 68.00625 10.77375 66.17 13.165 65.46875 15.96875 C 65.43005 16.1225 65.37375 16.255 65.34375 16.40625 C 64.82 19.00875 65.51375 21.21 67.40625 23 C 69.41375 24.8775 72.255 25.8125 75.9375 25.8125 C 78.16875 25.8125 80.51 25.35 82.96875 24.4375 L 84.40625 18.71875 C 82.77125 19.9775 81.4 20.81375 80.3125 21.25 C 79.19 21.7 77.97625 21.9375 76.65625 21.9375 C 74.5875 21.9375 73.0225 21.3825 71.96875 20.25 C 71.03625 19.23 70.7025 17.935 70.96875 16.40625 C 70.99875 16.2375 71.05005 16.08 71.09375 15.90625 C 71.525 14.18375 72.5625 12.73625 74.21875 11.59375 C 75.87125 10.45125 77.7425 9.875 79.8125 9.875 C 81.13125 9.875 82.19875 10.09875 83.0625 10.5625 C 83.9425 11.01125 84.865 11.85375 85.8125 13.0625 L 87.25 7.28125 C 85.38625 6.395 83.28375 5.96875 80.9375 5.96875 z M 101.53125 5.96875 C 98.0625 5.96875 95.055 6.875 92.5 8.6875 C 89.95625 10.526250000000001 88.305 12.934999999999999 87.5625 15.90625 C 87.5188 16.08 87.4737 16.23625 87.4375 16.40625 C 86.865 19.165 87.37 21.415 88.96875 23.125 C 90.6675 24.925 93.29625 25.8125 96.84375 25.8125 C 102.89 25.8125 107.53 22.1225 108 21.71875 L 105.375 21.125 C 104.7575 21.2675 101.395 22.24125 98.03125 21.9375 C 93.78875 21.55625 92.8225 18.44875 93.0625 16.90625 L 110.09375 16.90625 L 110.25 16.40625 L 110.375 15.875 C 111.15 12.7775 110.7675 10.341249999999999 109.1875 8.59375 C 107.5925 6.83125 105.035 5.96875 101.53125 5.96875 z M 57.21875 6.5 C 54.80875 6.5 52.4525 7.245 50.15625 8.75 L 45.0625 7.03125 L 42.71875 16.40625 L 40.375 25.8125 L 45.90625 25.8125 L 48.15625 16.75 C 48.18505 16.63375 48.22125 16.51125 48.24995 16.40625 C 48.82495 14.24625 49.596199999999996 12.70625 50.5312 11.8125 C 51.533699999999996 10.8625 52.9262 10.40625 54.74995 10.40625 C 56.42745 10.40625 57.5137 10.7475 57.9687 11.46875 C 58.44245 12.17375 58.432449999999996 13.46125 57.9687 15.3125 L 57.7187 16.40625 L 55.3437 25.8125 L 60.87495 25.8125 L 63.2187 16.40625 L 63.74995 14.28125 C 64.4137 11.6325 64.2312 9.73625 63.18745 8.5625 C 61.9837 7.1875 59.9887 6.5 57.2187 6.5 z M 127.8125 6.5 C 125.40125 6.5 123.04875 7.245 120.75 8.75 L 115.65625 7.03125 L 113.3125 16.40625 L 110.96875 25.8125 L 116.5 25.8125 L 118.75 16.75 C 118.78 16.63375 118.8138 16.51125 118.8437 16.40625 C 119.4212 14.24625 120.18745 12.70625 121.12495 11.8125 C 122.1287 10.8625 123.51745 10.40625 125.3437 10.40625 C 127.01995 10.40625 128.1062 10.7475 128.56245 11.46875 C 129.03495 12.17375 129.02620000000002 13.46125 128.56245 15.3125 L 128.2812 16.40625 L 125.93745000000001 25.8125 L 131.4687 25.8125 L 133.81245 16.40625 L 134.3437 14.28125 C 135.00745 11.6325 134.8237 9.73625 133.7812 8.5625 C 132.5787 7.1875 130.57995 6.5 127.81245 6.5 z M 183.96875 8.46875 L 183.3125 11.53125 L 186.40625 11.53125 L 185.375 16.40625 L 184.71875 19.65625 C 184.57625 20.33625 184.0325 21.045 183.09375 21.8125 C 182.8175 22.04 182.6475 22.18625 182.625 22.25 C 182.96875 23.32625 183.58125 24.37625 184.4375 25.34375 C 184.5038 25.36125 184.87 25.03875 185.5 24.40625 C 186.44 23.41 188.825 21.21375 192.6875 17.8125 C 192.675 17.7687 192.4625 17.3125 192.0625 16.46875 L 192.0313 16.40625 L 191.4688 15.15625 L 190.8438 15.6875 C 190.54379999999998 15.95125 190.25379999999998 16.19375 190.00005 16.40625 C 189.32504999999998 16.99125 188.81255 17.42 188.4688 17.6875 L 188.75005 16.40625 L 190.4063 8.46875 L 183.9688 8.46875 z M 29.59375 9.875 C 32.52625 9.875 34.09375 11.0275 34.28125 13.34375 L 23.25 13.34375 C 23.5625 12.80375 23.925 12.33125 24.375 11.90625 C 24.82125 11.48375 25.325 11.1075 25.875 10.8125 C 26.44 10.5025 27.03125 10.28 27.65625 10.125 C 28.28375 9.9575 28.92625 9.875 29.59375 9.875 z M 100.65625 9.875 C 103.58875 9.875 105.15875 11.0275 105.34375 13.34375 L 94.3125 13.34375 C 94.6275 12.80375 94.99125 12.33125 95.4375 11.90625 C 95.88625 11.48375 96.39375 11.1075 96.9375 10.8125 C 97.5075 10.5025 98.09375 10.28 98.71875 10.125 C 99.34875 9.9575 99.9875 9.875 100.65625 9.875 z M 161.375 10.8125 L 163 10.8125 L 162.28125 14.28125 L 160.65625 14.28125 L 161.375 10.8125 z M 173.34375 11.25 L 174.3125 11.25 C 174.44125 11.62125 174.62 11.99125 174.84375 12.34375 L 172.46875 12.34375 L 172.90625 11.78125 L 173.34375 11.25 z M 140.28125 11.40625 L 139.03125 16.40625 L 136.65625 25.8125 L 142.15625 25.8125 L 144.53125 16.40625 L 145.78125 11.40625 L 140.28125 11.40625 z M 169.96875 14.8125 L 173.875 14.8125 L 173.5625 16.40625 L 173.34375 17.3125 L 170.65625 17.3125 C 170.75625 16.9775 170.84625 16.6775 170.9375 16.40625 C 171.04125 16.09375 171.125 15.8275 171.21875 15.59375 C 171.0875 15.51875 171.0075 15.46875 170.9375 15.46875 L 169.3125 15.46875 L 169.96875 14.8125 z" stroke-linecap="round" />
</g>
</svg>