<?xml version="1.0" standalone="no"?>
<!DOCTYPE svg PUBLIC "-//W3C//DTD SVG 20010904//EN"
 "http://www.w3.org/TR/2001/REC-SVG-20010904/DTD/svg10.dtd">
<svg version="1.0" xmlns="http://www.w3.org/2000/svg"
 width="423.000000pt" height="443.000000pt" viewBox="0 0 423.000000 443.000000"
 preserveAspectRatio="xMidYMid meet">
<metadata>
Created by potrace 1.16, written by Peter Selinger 2001-2019
</metadata>
<g transform="translate(0.000000,443.000000) scale(0.100000,-0.100000)"
fill="#000000" stroke="none">
<path d="M1625 4419 c-482 -35 -1038 -121 -1498 -231 l-128 -30 4 -832 c3
-803 4 -836 26 -970 182 -1135 974 -2092 1932 -2336 100 -26 135 -25 244 4
897 241 1622 1039 1870 2061 78 318 78 323 82 1247 4 791 3 826 -14 832 -331
100 -873 196 -1373 242 -203 19 -952 28 -1145 13z m990 -159 c379 -45 823
-134 1168 -235 l57 -16 0 -939 c0 -783 -3 -958 -15 -1055 -46 -351 -164 -649
-376 -950 -80 -112 -307 -341 -417 -419 -589 -417 -1307 -420 -1894 -6 -108
76 -284 242 -371 350 -183 227 -330 528 -396 810 -50 215 -51 233 -51 1253 l0
955 48 16 c315 102 948 220 1362 256 186 15 682 5 885 -20z"/>
<path d="M1875 4224 c-498 -36 -855 -95 -1345 -222 l-145 -37 -3 -714 -2 -714
47 6 c27 4 145 20 263 36 208 29 468 57 770 83 226 20 1054 17 1300 -5 262
-23 608 -62 815 -92 93 -14 177 -25 187 -25 17 0 18 33 18 713 l0 714 -42 10
c-697 175 -1113 239 -1588 247 -124 2 -247 2 -275 0z m701 -264 c-47 -56 -29
-71 33 -30 60 41 106 48 150 24 19 -10 36 -23 38 -29 1 -5 -37 -28 -85 -50
-83 -38 -93 -40 -222 -46 -74 -4 -148 -12 -165 -18 -40 -16 -75 -50 -75 -73 0
-80 81 -93 399 -62 188 18 442 15 504 -7 22 -7 58 -30 80 -50 38 -33 42 -41
42 -83 0 -44 -3 -49 -62 -104 -35 -32 -63 -65 -63 -74 0 -37 82 -68 181 -68
21 0 41 -4 44 -10 3 -5 -6 -28 -21 -50 l-27 -41 22 -23 c24 -25 22 -29 -21
-40 -36 -8 -36 -33 -1 -47 22 -8 24 -12 13 -19 -8 -6 -31 -10 -51 -10 -36 0
-89 -31 -89 -52 0 -5 9 -21 20 -35 11 -14 20 -40 20 -57 0 -34 -14 -64 -23
-49 -4 5 -19 8 -35 5 -18 -2 -33 2 -41 12 -18 21 -34 20 -56 -4 -15 -17 -29
-20 -82 -18 -57 3 -63 5 -63 25 0 12 11 35 25 51 30 36 31 42 6 42 -10 0 -32
13 -49 30 l-32 30 32 16 c21 11 43 14 72 10 87 -14 98 -12 118 15 23 31 28 90
9 113 -12 14 -29 15 -116 10 -88 -6 -106 -4 -132 11 -42 24 -63 65 -63 118 l0
46 -46 7 c-75 11 -166 -17 -260 -81 -101 -68 -151 -90 -236 -105 -81 -14 -169
-2 -262 35 -33 13 -63 22 -66 20 -4 -3 -5 -16 -2 -30 7 -40 -22 -71 -104 -111
-86 -43 -109 -70 -108 -126 1 -21 -1 -38 -4 -38 -22 0 -91 45 -100 65 -14 29
-24 31 -47 8 -12 -11 -15 -26 -12 -50 6 -37 3 -39 -33 -18 -32 18 -70 18 -94
0 -15 -12 -18 -22 -12 -62 7 -58 -3 -79 -30 -65 -11 6 -31 13 -46 16 -18 4
-29 16 -37 37 -9 27 -14 30 -33 24 -45 -14 -86 -17 -92 -6 -4 6 -16 11 -27 11
-31 0 -23 39 16 76 40 38 42 45 16 68 -27 24 -33 74 -10 81 20 7 102 -26 113
-44 29 -47 271 56 399 169 42 38 62 48 102 53 28 4 71 18 98 31 26 13 50 19
53 15 10 -17 74 -9 95 12 21 21 51 83 62 129 l6 25 511 -3 c544 -4 540 -5 540
44 0 73 -245 92 -615 48 -137 -16 -246 -12 -300 11 -83 35 -104 113 -49 182
42 51 108 83 199 96 45 7 75 16 75 23 0 25 40 59 82 70 23 6 45 9 47 8 2 -2
-8 -17 -23 -34z m-977 4 c49 -14 54 -14 72 2 18 16 20 16 38 0 17 -15 23 -15
82 -1 93 21 111 20 104 -7 -5 -20 0 -25 42 -40 104 -37 183 -142 183 -244 0
-82 -9 -116 -30 -109 -14 5 -20 -1 -25 -27 -11 -55 -47 -138 -60 -138 -6 0
-20 9 -30 20 -24 26 -35 25 -60 -5 -24 -30 -95 -62 -95 -43 0 7 12 21 26 33
39 31 88 173 88 260 1 50 6 77 19 95 21 30 22 88 2 117 -8 12 -31 27 -50 33
-30 10 -41 9 -72 -7 -21 -10 -45 -30 -53 -45 -15 -27 -14 -29 22 -58 34 -28
68 -98 68 -141 0 -9 -11 -42 -25 -73 -14 -31 -25 -65 -25 -75 0 -27 -35 -54
-59 -46 -26 8 -26 17 -1 40 13 12 20 31 20 57 0 29 8 49 31 78 40 50 35 65
-22 62 -79 -5 -82 -8 -75 -63 4 -27 9 -56 12 -64 5 -12 -3 -15 -39 -15 l-45 0
15 60 c9 34 13 64 9 67 -10 11 -115 20 -128 12 -9 -6 -8 -13 5 -27 9 -10 17
-24 17 -30 0 -6 10 -16 21 -23 18 -9 20 -17 15 -50 -6 -35 -3 -43 24 -68 17
-15 27 -30 24 -34 -12 -11 -51 -8 -61 6 -19 24 -63 163 -63 197 1 52 33 116
69 135 17 8 31 21 31 28 0 19 -50 64 -84 77 -78 29 -156 -68 -110 -138 14 -19
19 -46 19 -97 1 -81 49 -222 91 -266 22 -23 32 -49 19 -49 -20 0 -75 32 -92
54 -25 32 -40 33 -71 4 -23 -23 -24 -23 -38 -3 -8 11 -24 51 -36 88 -15 50
-24 67 -34 63 -34 -13 -45 98 -17 180 23 67 102 146 172 171 45 16 51 21 46
41 -5 19 -2 22 28 22 18 0 57 -7 86 -16z m-539 -344 c29 -15 43 -48 49 -115
l6 -60 51 -28 c29 -15 101 -40 160 -57 60 -16 136 -39 169 -51 45 -16 72 -19
110 -15 l50 6 -35 -30 c-19 -16 -64 -45 -99 -62 -75 -38 -154 -44 -208 -15
-41 22 -106 22 -140 0 l-26 -17 6 47 7 47 -33 0 c-18 0 -38 -5 -45 -12 -15
-15 -16 0 -2 37 23 60 -38 91 -108 55 -29 -15 -50 -20 -71 -15 -47 10 -55 28
-26 55 30 29 32 47 5 68 -12 10 -22 28 -22 42 -1 14 -6 28 -11 31 -6 4 1 12
13 19 22 12 67 9 118 -6 18 -5 22 -2 22 14 0 11 7 25 15 32 8 7 15 19 15 26 0
17 5 17 30 4z m1691 -374 c10 -27 32 -63 49 -81 16 -17 30 -34 30 -38 0 -18
-68 -47 -110 -47 -62 0 -94 -23 -86 -62 6 -30 5 -30 -29 -24 -43 8 -57 -14
-30 -44 15 -17 16 -20 3 -25 -9 -4 -32 1 -53 9 -47 20 -69 20 -85 1 -10 -12
-10 -18 0 -30 16 -20 -6 -83 -23 -66 -6 6 -29 11 -51 11 -23 0 -47 7 -58 17
-16 14 -24 15 -52 5 -44 -16 -65 -15 -73 4 -3 8 -12 13 -19 10 -18 -7 -18 23
0 46 7 10 29 25 50 33 39 17 40 18 27 43 -4 9 -11 32 -14 50 -6 31 -6 32 28
32 24 0 45 -9 68 -30 41 -36 74 -38 134 -9 69 33 90 99 31 99 -30 0 -21 16 35
58 77 59 150 93 191 89 12 -1 24 -18 37 -51z"/>
<path d="M1743 2613 l-73 -4 0 -329 0 -330 -630 0 -630 0 0 -22 c0 -81 95
-378 171 -533 44 -91 181 -315 193 -315 3 0 22 11 42 25 l37 25 413 0 414 0 0
-344 0 -345 73 -15 c218 -47 440 -47 660 0 l77 17 0 343 0 344 409 0 408 0 37
-25 c21 -14 41 -23 46 -20 14 9 111 160 158 245 82 152 164 378 196 548 l14
72 -634 0 -634 0 0 329 0 328 -67 6 c-68 7 -542 6 -680 0z m392 -291 c3 -9 28
-1 85 28 l80 40 -40 -81 c-23 -45 -40 -82 -38 -84 2 -2 39 -15 82 -31 l79 -28
-78 -26 c-43 -14 -80 -31 -82 -37 -2 -6 12 -43 31 -82 l36 -70 -76 36 c-42 20
-79 32 -83 27 -5 -5 -19 -39 -31 -77 -13 -37 -27 -64 -31 -60 -5 7 -26 60 -54
141 -3 9 -27 1 -80 -29 l-75 -41 36 77 c20 41 33 79 30 83 -4 4 -42 19 -84 33
l-77 26 85 28 c47 15 86 29 88 30 2 2 -15 40 -38 84 l-40 81 70 -35 c38 -19
75 -35 83 -35 7 0 21 24 32 53 39 112 35 110 61 32 13 -38 26 -76 29 -83z
m-164 -497 c16 -9 39 -30 49 -48 18 -29 20 -51 20 -258 l0 -227 -34 17 c-30
16 -58 17 -240 13 l-206 -5 0 262 0 261 190 0 c153 0 197 -3 221 -15z m619
-245 l0 -260 -205 0 c-165 0 -212 -3 -235 -15 l-30 -16 0 224 c0 216 1 225 23
258 41 62 70 69 270 69 l177 0 0 -260z m583 180 l28 -80 80 40 79 40 -40 -81
c-23 -45 -40 -82 -38 -84 2 -1 35 -12 73 -25 39 -12 73 -26 78 -29 4 -4 -27
-18 -68 -31 -42 -13 -78 -27 -81 -32 -3 -4 11 -39 31 -78 19 -38 33 -70 31
-70 -2 0 -34 14 -71 30 -37 17 -71 30 -75 30 -4 0 -21 -36 -37 -80 l-29 -81
-23 81 c-13 44 -28 80 -33 80 -4 0 -40 -16 -78 -35 -39 -19 -70 -33 -70 -30 0
3 16 37 36 76 19 40 32 75 27 79 -4 4 -38 17 -76 30 -37 12 -65 25 -62 30 3 5
34 18 70 30 36 12 67 25 70 30 3 5 -13 42 -36 84 l-40 75 75 -34 c41 -19 79
-35 84 -35 4 0 19 34 32 75 13 41 26 75 29 75 3 0 19 -36 34 -80z m-2144 28
c7 -24 19 -57 26 -75 l14 -32 75 34 c42 19 76 32 76 29 0 -2 -16 -36 -36 -75
-19 -39 -34 -72 -32 -73 2 -2 41 -16 88 -33 l84 -30 -82 -27 c-45 -15 -82 -32
-82 -37 0 -5 16 -41 35 -80 l36 -70 -70 36 c-39 19 -75 35 -80 35 -5 0 -22
-37 -37 -82 l-27 -83 -26 77 c-14 42 -29 79 -33 83 -3 4 -23 -2 -45 -13 -21
-11 -55 -27 -75 -35 l-38 -16 35 69 c19 38 35 74 35 79 0 5 -37 22 -82 37
l-81 27 78 28 c43 16 80 31 82 33 2 2 -12 36 -31 75 -20 39 -36 73 -36 76 0 3
32 -11 70 -30 39 -20 74 -34 78 -31 4 2 18 36 32 75 13 39 27 71 31 71 3 0 12
-19 18 -42z m1115 -775 c2 -2 36 12 75 31 39 20 73 36 75 36 3 0 -11 -33 -30
-74 -19 -41 -34 -77 -34 -80 0 -2 37 -17 81 -31 92 -31 93 -29 -28 -69 -29
-10 -53 -23 -53 -29 0 -7 14 -41 30 -76 17 -35 29 -65 28 -67 -2 -1 -36 13
-77 32 -41 19 -75 33 -76 32 -1 -2 -15 -38 -30 -81 -32 -88 -30 -89 -69 31
-10 28 -21 52 -25 52 -3 0 -37 -16 -74 -36 -37 -19 -67 -33 -67 -30 0 3 15 39
34 80 l34 74 -80 28 -80 28 41 18 c23 9 59 23 81 29 22 7 40 16 40 21 0 6 -16
39 -36 74 -20 36 -34 67 -31 70 3 3 32 -8 66 -25 33 -17 66 -31 74 -31 7 0 21
24 32 53 40 113 34 111 66 23 16 -43 31 -81 33 -83z"/>
<path d="M1630 1710 l0 -30 170 0 170 0 0 30 0 30 -170 0 -170 0 0 -30z"/>
<path d="M1630 1575 l0 -25 170 0 170 0 0 25 0 25 -170 0 -170 0 0 -25z"/>
<path d="M1630 1440 l0 -30 170 0 170 0 0 30 0 30 -170 0 -170 0 0 -30z"/>
<path d="M2190 1710 l0 -30 170 0 170 0 0 30 0 30 -170 0 -170 0 0 -30z"/>
<path d="M2190 1575 l0 -25 170 0 170 0 0 25 0 25 -170 0 -170 0 0 -25z"/>
<path d="M2190 1440 l0 -30 170 0 170 0 0 30 0 30 -170 0 -170 0 0 -30z"/>
</g>
</svg>
