<?xml version="1.0" standalone="no"?>
<!DOCTYPE svg PUBLIC "-//W3C//DTD SVG 20010904//EN"
 "http://www.w3.org/TR/2001/REC-SVG-20010904/DTD/svg10.dtd">
<svg version="1.0" xmlns="http://www.w3.org/2000/svg"
 width="417.000000pt" height="441.000000pt" viewBox="0 0 417.000000 441.000000"
 preserveAspectRatio="xMidYMid meet">
<metadata>
Created by potrace 1.16, written by Peter Selinger 2001-2019
</metadata>
<g transform="translate(0.000000,441.000000) scale(0.100000,-0.100000)"
fill="#000000" stroke="none">
<path d="M1740 4189 c-335 -27 -735 -95 -1115 -191 -110 -28 -210 -53 -222
-55 l-23 -5 0 -706 0 -705 48 6 c26 4 130 18 232 32 209 29 574 67 820 87 250
20 990 17 1255 -5 265 -22 609 -60 832 -92 94 -14 179 -25 187 -25 14 0 16 69
16 700 l0 700 -27 11 c-44 17 -405 105 -543 133 -275 55 -578 98 -815 116
-161 11 -491 11 -645 -1z m861 -227 c-5 -10 -17 -24 -25 -32 -15 -12 -22 -40
-10 -40 3 0 21 12 40 27 48 36 126 42 172 14 17 -12 32 -24 32 -28 0 -5 -42
-28 -92 -52 l-92 -45 -142 -6 c-156 -8 -195 -20 -224 -74 -14 -26 -14 -28 12
-51 42 -37 102 -40 318 -19 239 23 474 23 543 1 93 -30 147 -84 147 -147 0
-44 -24 -84 -65 -109 -19 -11 -40 -32 -47 -46 -19 -42 14 -66 98 -72 38 -2 79
-6 92 -9 28 -6 29 -33 2 -67 -24 -30 -26 -55 -5 -63 24 -10 17 -33 -12 -40
-46 -11 -48 -16 -17 -40 37 -30 25 -44 -46 -52 -69 -9 -91 -36 -60 -75 12 -15
20 -40 20 -64 0 -43 -13 -72 -24 -54 -4 6 -21 11 -38 11 -17 0 -40 7 -50 17
-17 15 -20 15 -41 -5 -19 -18 -33 -21 -90 -19 -65 2 -67 3 -67 29 0 14 12 40
26 57 18 22 21 31 11 31 -8 0 -31 13 -51 29 l-36 29 26 21 c30 24 64 26 128 9
54 -14 70 -4 87 53 10 32 9 42 -4 62 -16 24 -18 25 -121 20 -88 -5 -109 -3
-131 11 -38 25 -65 75 -65 122 0 35 -4 43 -22 48 -71 19 -172 -10 -273 -79
-101 -68 -153 -91 -242 -106 -85 -14 -180 -1 -262 37 -29 13 -55 24 -57 24 -2
0 -4 -18 -4 -39 0 -33 -5 -44 -33 -65 -18 -14 -55 -35 -83 -47 -76 -33 -94
-54 -94 -111 0 -26 -5 -48 -10 -48 -27 0 -79 31 -102 60 l-25 32 -16 -22 c-10
-15 -14 -33 -10 -53 7 -33 4 -33 -63 -6 -27 11 -36 10 -56 -3 -22 -15 -24 -22
-20 -70 3 -42 0 -57 -13 -68 -15 -12 -18 -12 -26 3 -6 9 -20 17 -33 17 -24 0
-48 22 -59 52 -6 17 -8 17 -42 1 -35 -17 -38 -17 -67 0 -16 9 -34 15 -39 11
-5 -3 -9 8 -9 25 0 22 10 40 34 63 34 33 35 33 16 53 -11 12 -21 30 -23 40 -1
11 -6 26 -10 33 -12 18 31 31 67 21 16 -5 46 -20 67 -34 34 -24 40 -25 80 -15
96 25 286 137 348 204 19 20 34 26 65 26 23 0 61 10 86 22 29 14 64 22 99 23
63 0 76 13 116 110 20 50 28 60 47 59 13 -1 239 -5 503 -9 467 -7 481 -7 504
12 20 16 22 23 13 40 -20 36 -68 46 -246 51 -121 3 -216 -1 -329 -13 -293 -32
-417 3 -417 119 0 88 86 156 222 177 71 11 75 14 94 48 15 29 28 38 64 48 66
17 72 16 61 -5z m-978 -17 c20 -5 33 -3 47 10 19 17 21 17 40 0 16 -15 26 -16
67 -6 26 6 66 12 88 13 35 2 40 0 37 -18 -2 -17 7 -25 41 -38 102 -39 176
-135 184 -240 7 -76 -11 -143 -32 -126 -11 9 -16 3 -25 -28 -13 -50 -48 -129
-59 -137 -5 -3 -23 6 -39 20 l-29 24 -24 -25 c-40 -43 -109 -70 -109 -43 0 5
13 22 29 37 20 18 41 59 66 127 30 85 34 108 29 153 -5 43 -3 56 12 73 26 28
25 93 -2 119 -11 11 -36 23 -56 26 -29 5 -41 1 -71 -26 -43 -38 -46 -52 -12
-70 27 -15 60 -76 70 -130 5 -25 0 -50 -18 -90 -13 -30 -27 -68 -31 -85 -4
-16 -12 -36 -18 -42 -15 -18 -53 -16 -69 3 -11 14 -9 19 14 36 23 17 27 27 27
68 0 32 5 50 14 53 11 5 46 60 46 74 0 5 -74 3 -99 -4 -21 -5 -23 -10 -17 -47
3 -23 9 -51 12 -63 6 -22 3 -23 -41 -23 l-48 0 6 33 c3 17 9 46 12 63 7 30 5
31 -32 37 -91 16 -104 2 -53 -53 25 -27 30 -40 28 -73 -2 -33 3 -44 26 -64 23
-20 26 -26 15 -39 -15 -18 -59 -15 -70 6 -33 61 -70 179 -66 211 7 54 37 110
69 128 34 19 35 31 6 58 -57 51 -97 55 -139 14 -34 -34 -38 -74 -12 -111 12
-17 18 -46 18 -95 1 -83 51 -227 89 -260 13 -11 27 -30 30 -42 6 -20 5 -21
-35 -11 -24 7 -54 25 -72 44 l-31 32 -30 -25 c-30 -25 -30 -25 -47 -5 -9 11
-26 52 -39 91 -17 55 -26 69 -35 61 -18 -15 -35 38 -35 109 0 107 80 216 186
257 29 11 44 23 43 33 -1 9 -1 19 0 22 1 6 101 -5 144 -16z m-542 -361 c16
-17 24 -40 27 -81 2 -32 11 -65 19 -75 21 -23 98 -54 208 -84 52 -14 116 -34
141 -46 36 -15 61 -19 110 -16 35 2 64 1 64 -3 0 -14 -83 -79 -129 -101 -68
-33 -158 -36 -223 -8 -56 24 -98 22 -130 -7 -17 -15 -20 -15 -28 -3 -5 8 -7
23 -5 33 3 9 8 26 11 37 4 16 1 20 -20 20 -14 0 -28 -5 -31 -11 -14 -22 -30
-1 -27 35 2 20 -2 44 -8 52 -16 18 -58 18 -90 -1 -33 -19 -74 -19 -110 0 -31
16 -40 35 -16 35 7 0 21 12 31 26 16 25 16 27 -4 48 -12 12 -21 31 -21 41 0
10 -8 24 -17 31 -16 11 -14 14 22 30 37 15 43 15 84 1 49 -18 61 -15 61 13 0
10 5 22 10 25 6 3 10 14 10 25 0 24 31 16 61 -16z m1670 -360 c11 -28 33 -66
49 -84 27 -31 29 -35 14 -51 -17 -19 -86 -39 -133 -39 -37 0 -57 -29 -41 -59
13 -26 0 -34 -45 -25 -38 7 -43 -1 -20 -32 8 -10 15 -22 15 -26 0 -14 -48 -9
-84 8 -49 24 -68 14 -60 -33 7 -45 -16 -86 -37 -66 -7 7 -24 9 -41 6 -21 -4
-38 0 -59 16 -28 21 -33 22 -67 8 -32 -13 -40 -13 -69 2 -21 11 -33 23 -33 38
0 25 53 73 82 73 15 0 18 4 13 18 -4 9 -10 28 -13 42 -3 14 -10 28 -16 32 -15
10 -3 18 36 24 28 5 42 0 83 -31 46 -36 50 -37 87 -26 77 23 130 101 69 101
-38 0 -30 18 27 62 66 52 92 67 147 84 63 20 75 15 96 -42z"/>
<path d="M1703 2583 l-33 -4 0 -330 0 -329 -631 0 c-596 0 -630 -1 -625 -17 2
-10 10 -45 16 -77 42 -209 147 -459 280 -664 l60 -93 33 23 32 23 418 3 417 3
0 -341 0 -340 23 -9 c160 -60 604 -60 765 0 l22 9 0 340 0 341 418 -3 c416 -3
417 -3 449 -26 l32 -22 61 92 c136 204 227 432 294 731 l6 27 -630 0 -630 0 0
329 0 328 -46 7 c-50 6 -676 6 -731 -1z m402 -193 c15 -44 31 -82 35 -85 5 -3
41 11 81 30 39 20 73 34 76 32 2 -3 -12 -37 -31 -76 -20 -39 -36 -74 -36 -79
0 -5 34 -19 76 -32 41 -13 77 -27 80 -31 2 -4 -32 -19 -76 -35 -44 -15 -80
-31 -80 -36 0 -5 16 -40 35 -78 19 -38 35 -72 35 -74 0 -3 -34 10 -76 29 -42
19 -80 35 -84 35 -5 0 -21 -37 -36 -82 l-27 -83 -18 43 c-10 23 -24 60 -30 82
-7 22 -15 40 -19 40 -4 0 -42 -16 -84 -35 -42 -19 -76 -32 -76 -29 0 2 13 30
29 62 51 102 53 96 -40 127 -44 15 -77 31 -72 35 4 4 37 17 73 30 36 13 68 26
73 30 4 3 -8 40 -27 81 -19 41 -33 75 -31 77 2 2 38 -13 81 -32 42 -20 78 -35
79 -34 1 2 15 40 30 86 16 45 30 82 31 82 1 0 14 -36 29 -80z m-1032 -716 c2
-2 40 14 85 36 45 21 82 37 82 34 0 -2 -18 -40 -40 -83 l-39 -80 79 -26 c44
-15 82 -30 84 -34 3 -4 -33 -20 -79 -35 l-85 -27 40 -79 c22 -44 40 -82 40
-85 0 -3 -36 13 -81 36 -45 22 -82 39 -83 37 -2 -2 -16 -40 -32 -85 -16 -45
-31 -79 -35 -75 -4 4 -17 39 -29 77 -13 39 -25 73 -27 77 -2 4 -40 -10 -83
-32 -44 -22 -82 -40 -85 -40 -3 0 13 36 35 80 22 44 40 81 40 84 0 2 -36 16
-80 32 -44 15 -80 30 -80 34 0 4 34 17 76 30 41 13 77 27 79 31 3 3 -13 42
-34 87 l-39 80 56 -25 c30 -13 68 -31 83 -39 l28 -14 20 55 c12 31 21 58 21
60 0 2 5 16 11 32 11 27 12 25 40 -56 16 -46 30 -85 32 -87z m2098 76 c12 -36
23 -68 26 -72 2 -4 38 9 80 28 41 19 78 33 80 30 2 -2 -12 -36 -32 -75 -19
-40 -34 -75 -31 -79 3 -5 39 -19 80 -32 42 -13 76 -27 76 -31 0 -4 -36 -19
-80 -34 -44 -15 -80 -29 -80 -31 0 -3 16 -36 35 -74 19 -38 35 -74 35 -80 0
-6 -36 8 -79 30 -44 22 -82 36 -84 32 -2 -4 -14 -36 -26 -72 -32 -97 -34 -98
-61 -23 -39 114 -29 109 -120 63 -44 -22 -80 -38 -80 -35 0 3 16 37 36 76 19
39 33 76 31 83 -3 6 -39 22 -80 36 -42 13 -74 27 -71 31 2 4 40 19 84 34 l79
26 -39 80 c-22 43 -40 81 -40 84 0 3 21 -5 48 -19 26 -13 64 -31 84 -39 l37
-16 28 85 c17 52 30 79 35 71 4 -6 17 -41 29 -77z m-1195 56 c61 -37 64 -49
64 -310 l0 -236 -37 20 c-34 18 -57 20 -245 20 l-208 0 0 258 c0 142 3 262 7
266 4 4 93 6 198 4 165 -3 194 -5 221 -22z m622 -243 l2 -263 -207 0 c-189 0
-212 -2 -246 -20 l-37 -20 0 236 c0 267 3 278 75 314 36 18 57 20 225 18 l185
-3 3 -262z m-493 -473 c15 -44 31 -82 35 -85 5 -3 41 11 81 30 39 20 73 34 76
32 2 -3 -12 -37 -31 -76 -20 -39 -36 -74 -36 -79 0 -4 39 -21 87 -36 l88 -29
-85 -30 c-47 -17 -87 -32 -90 -34 -2 -2 13 -38 33 -80 21 -41 36 -77 34 -80
-3 -2 -39 13 -80 34 -42 20 -78 35 -80 33 -2 -3 -17 -42 -34 -88 l-29 -84 -30
86 c-16 47 -32 86 -37 86 -4 0 -39 -16 -78 -36 -39 -19 -73 -33 -76 -31 -2 3
12 37 31 76 20 39 36 75 36 80 0 5 -39 22 -87 39 l-88 29 82 27 c46 15 85 32
88 36 3 5 -11 41 -30 81 -20 39 -34 73 -32 75 2 2 39 -12 81 -32 43 -19 79
-34 80 -32 2 2 16 40 32 86 16 45 29 82 31 82 1 0 13 -36 28 -80z"/>
<path d="M1630 1555 l0 -25 163 2 c159 3 162 3 165 26 l3 22 -165 0 -166 0 0
-25z"/>
<path d="M2197 1713 c-4 -3 -7 -15 -7 -25 0 -17 12 -18 165 -18 l165 0 0 25 0
25 -158 0 c-87 0 -162 -3 -165 -7z"/>
<path d="M2192 1558 c3 -23 6 -23 166 -26 l162 -2 0 25 0 25 -166 0 -165 0 3
-22z"/>
</g>
</svg>
